<?xml version="1.0" encoding="UTF-8" standalone="no"?><!DOCTYPE svg PUBLIC "-//W3C//DTD SVG 1.1//EN" "http://www.w3.org/Graphics/SVG/1.1/DTD/svg11.dtd"><svg width="100%" height="100%" viewBox="0 0 2134 2134" version="1.1" xmlns="http://www.w3.org/2000/svg" xmlns:xlink="http://www.w3.org/1999/xlink" xml:space="preserve" xmlns:serif="http://www.serif.com/" style="fill-rule:evenodd;clip-rule:evenodd;stroke-linejoin:round;stroke-miterlimit:2;"><g id="Logo"><g id="Logomark"><path d="M2008.29,974.596l-341.304,312.067l-99.475,-199.163l401.975,-349.832l38.804,236.928Z" style="fill:#f8ca00;"/><path d="M163.757,1726.77l1037.59,0l-1021.99,0l437.993,-583.992c-0,0 -258.27,-258.27 -409.405,-409.405c-17.875,-17.875 -44.758,-23.222 -68.112,-13.548c-23.355,9.674 -38.583,32.464 -38.583,57.742c0,244.527 0,717.092 0,886.703c0,34.518 27.983,62.5 62.5,62.5Zm20.834,-898.906l-0,753.048l322.734,-430.314l-322.734,-322.734Z" style="fill:#111;"/><path d="M879.927,1726.77l1059.16,0l-444.952,-614.212c0,0 275.034,-275.034 432.095,-432.095c17.875,-17.874 44.757,-23.222 68.112,-13.548c23.355,9.674 38.582,32.464 38.582,57.743c0,255.514 0,762.828 0,939.612c0,34.518 -27.982,62.5 -62.5,62.5l-1090.5,0Zm723.394,-605.543l346.274,477.997l0,-824.27l-346.274,346.273Z" style="fill:#111;"/><path d="M1959.77,1726.77c18.38,0 35.182,-10.384 43.401,-26.823c8.22,-16.439 6.446,-36.112 -4.581,-50.815c-178.359,-237.812 -715.136,-953.514 -881.919,-1175.89c-11.804,-15.738 -30.328,-25 -50,-25c-19.673,-0 -38.197,9.262 -50,25c-169.302,225.736 -719.857,959.808 -889.752,1186.34c-9.544,12.726 -11.079,29.752 -3.965,43.98c7.113,14.228 21.655,23.215 37.563,23.215c319.522,0 1458.42,0 1799.25,0Zm-1716.58,-83.333l1646.96,-0l-823.481,-1097.98l-823.481,1097.98Z" style="fill:#111;"/><path d="M2032.93,1664.27c0,16.576 -6.584,32.473 -18.305,44.194c-11.722,11.721 -27.619,18.306 -44.195,18.306l-31.337,0l-330.282,-456.085l424.119,-424.119l0,817.704Zm-83.333,-65.074l0,-551.446c0,0 -231.612,231.613 -231.612,231.613l231.612,319.833Z" style="fill:#111;"/></g></g></svg>