<?xml version="1.0" encoding="UTF-8" standalone="no"?><!DOCTYPE svg PUBLIC "-//W3C//DTD SVG 1.1//EN" "http://www.w3.org/Graphics/SVG/1.1/DTD/svg11.dtd"><svg width="100%" height="100%" viewBox="0 0 1981 1321" version="1.1" xmlns="http://www.w3.org/2000/svg" xmlns:xlink="http://www.w3.org/1999/xlink" xml:space="preserve" xmlns:serif="http://www.serif.com/" style="fill-rule:evenodd;clip-rule:evenodd;stroke-linejoin:round;stroke-miterlimit:2;"><g id="Logo"><g id="Logomark"><path d="M1931.77,568.028l-341.304,312.067l-99.475,-199.163l401.975,-349.832l38.804,236.928Z" style="fill:#f8ca00;"/><path d="M112.205,1320.2l1037.59,-0l-1021.98,-0l437.992,-583.992c0,-0 -258.269,-258.27 -409.404,-409.405c-17.875,-17.875 -44.758,-23.222 -68.112,-13.548c-23.355,9.674 -38.583,32.463 -38.583,57.742c0,244.526 0,717.092 0,886.703c0,34.518 27.983,62.5 62.5,62.5Zm41.667,-848.611l-0,640.253l274.393,-365.859l-274.393,-274.394Z" style="fill:#111;"/><path d="M782.575,1320.2l1059.16,-0l-444.951,-614.212c0,-0 275.034,-275.034 432.095,-432.095c17.875,-17.875 44.757,-23.222 68.112,-13.548c23.354,9.674 38.582,32.463 38.582,57.742c0,255.514 0,762.829 0,939.613c0,34.518 -27.982,62.5 -62.5,62.5l-1090.5,-0Zm750.69,-603.376l298.144,411.56l0,-709.704l-298.144,298.144Z" style="fill:#111;"/><path d="M1857.84,1320.2c23.191,-0 44.392,-13.103 54.763,-33.846c10.372,-20.743 8.133,-45.565 -5.781,-64.118c-191.88,-255.84 -704.403,-939.203 -866.675,-1155.57c-11.804,-15.738 -30.328,-25 -50,-25c-19.673,-0 -38.197,9.262 -50,25c-161.934,215.911 -672.657,896.876 -865.469,1153.96c-14.144,18.857 -16.419,44.087 -5.877,65.17c10.542,21.083 32.09,34.401 55.662,34.401c356.631,-0 1379.26,-0 1733.38,-0Zm-1649.51,-104.167l1563.63,0l-781.814,-1042.42l-781.815,1042.42Z" style="fill:#111;"/><path d="M1935.58,1257.7c0,16.576 -6.585,32.473 -18.306,44.194c-11.721,11.721 -27.618,18.306 -44.194,18.306l-31.338,-0l-330.281,-456.085l424.119,-424.119l0,817.704Zm-104.167,-129.363l0,-436.861c0,0 -183.485,183.486 -183.485,183.486l183.485,253.375Z" style="fill:#111;"/></g></g></svg>